
<svg width="261" height="246" viewBox="0 0 261 246" fill="none" xmlns="http://www.w3.org/2000/svg">
<circle cx="129.663" cy="122.013" r="118.573" stroke="#24519B" stroke-width="3.41216"/>
<circle cx="130.516" cy="120.307" r="77.6266" stroke="#24519B" stroke-width="3.41216"/>
<circle cx="129.665" cy="120.307" r="102.365" stroke="#24519B" stroke-width="3.41216"/>
<path d="M127.568 239.542L24.1326 73.6339L238.64 78.6463L127.568 239.542L126.12 240.445L127.568 239.542Z" fill="white" stroke="#24519B" stroke-width="3.41216"/>
<path d="M130.09 3.99072L237.373 167.438H22.8069L130.09 3.99072L131.516 3.05454L130.09 3.99072Z" fill="white" stroke="#24519B" stroke-width="3.41216"/>
<line x1="52.6375" y1="118.561" x2="82.4939" y2="167.185" stroke="#24519B" stroke-width="3.41216"/>
<line x1="177.732" y1="167.112" x2="207.588" y2="123.607" stroke="#24519B" stroke-width="3.41216"/>
<line x1="82.7914" y1="75.0968" x2="179.185" y2="77.6559" stroke="#24519B" stroke-width="3.41216"/>
<path d="M128.384 90.7691C134.851 86.0117 141.323 83.6265 147.79 83.6265C154.258 83.6265 160.73 86.0117 167.197 90.7691V155.708C160.73 151.338 154.258 149.155 147.79 149.155C141.323 149.155 134.851 151.338 128.384 155.708M128.384 90.7691V155.708M128.384 90.7691C121.916 86.0117 115.444 83.6265 108.977 83.6265C102.51 83.6265 96.0376 86.0117 89.5703 90.7691V155.708C96.0376 151.338 102.51 149.155 108.977 149.155C115.444 149.155 121.916 151.338 128.384 155.708" stroke="#24519B" stroke-width="5.54476" stroke-linecap="round" stroke-linejoin="round"/>
<path d="M128.384 90.7691C134.851 86.0117 141.323 83.6265 147.79 83.6265C154.258 83.6265 160.73 86.0117 167.197 90.7691V155.708C160.73 151.338 154.258 149.155 147.79 149.155C141.323 149.155 134.851 151.338 128.384 155.708M128.384 90.7691V155.708M128.384 90.7691C121.916 86.0117 115.444 83.6265 108.977 83.6265C102.51 83.6265 96.0376 86.0117 89.5703 90.7691V155.708C96.0376 151.338 102.51 149.155 108.977 149.155C115.444 149.155 121.916 151.338 128.384 155.708" stroke="#24519B" stroke-width="4.2652" stroke-linecap="round" stroke-linejoin="round"/>
<path d="M128.383 89.797C133.855 85.6871 139.332 83.6265 144.804 83.6265C150.276 83.6265 155.753 85.6871 161.225 89.797V145.898C155.753 142.122 150.276 140.237 144.804 140.237C139.332 140.237 133.855 142.122 128.383 145.898M128.383 89.797V145.898M128.383 89.797C122.911 85.6871 117.434 83.6265 111.962 83.6265C106.49 83.6265 101.013 85.6871 95.541 89.797V145.898C101.013 142.122 106.49 140.237 111.962 140.237C117.434 140.237 122.911 142.122 128.383 145.898" stroke="#24519B" stroke-width="2.77238" stroke-linecap="round" stroke-linejoin="round"/>
<path d="M128.384 90.3042C134.851 85.8565 141.323 83.6265 147.79 83.6265C154.258 83.6265 160.73 85.8565 167.197 90.3042V151.017C160.73 146.93 154.258 144.89 147.79 144.89C141.323 144.89 134.851 146.93 128.384 151.017M128.384 90.3042V151.017M128.384 90.3042C121.916 85.8565 115.444 83.6265 108.977 83.6265C102.51 83.6265 96.0376 85.8565 89.5703 90.3042V151.017C96.0376 146.93 102.51 144.89 108.977 144.89C115.444 144.89 121.916 146.93 128.384 151.017" stroke="#24519B" stroke-width="2.55912" stroke-linecap="round" stroke-linejoin="round"/>
</svg>
